<mxfile host="app.diagrams.net" modified="2022-06-14T14:02:59.894Z" agent="5.0 (Windows NT 10.0; Win64; x64) AppleWebKit/537.36 (KHTML, like Gecko) Chrome/102.0.5005.63 Safari/537.36 Edg/102.0.1245.39" etag="ya9C-Iw35kTv4zrxvI9r" version="20.0.1" type="github">
  <diagram id="C5RBs43oDa-KdzZeNtuy" name="Page-1">
    <mxGraphModel dx="3118" dy="1273" grid="1" gridSize="10" guides="1" tooltips="1" connect="1" arrows="1" fold="1" page="1" pageScale="1" pageWidth="827" pageHeight="1169" math="0" shadow="0">
      <root>
        <mxCell id="WIyWlLk6GJQsqaUBKTNV-0" />
        <mxCell id="WIyWlLk6GJQsqaUBKTNV-1" parent="WIyWlLk6GJQsqaUBKTNV-0" />
        <mxCell id="6Z7Kgo8BdCsyhNxCnBk_-33" style="edgeStyle=orthogonalEdgeStyle;rounded=0;orthogonalLoop=1;jettySize=auto;html=1;strokeColor=default;endArrow=none;endFill=0;entryX=1;entryY=0.5;entryDx=0;entryDy=0;" edge="1" parent="WIyWlLk6GJQsqaUBKTNV-1" source="6Z7Kgo8BdCsyhNxCnBk_-0" target="6Z7Kgo8BdCsyhNxCnBk_-34">
          <mxGeometry relative="1" as="geometry">
            <mxPoint x="-260" y="480" as="targetPoint" />
          </mxGeometry>
        </mxCell>
        <mxCell id="6Z7Kgo8BdCsyhNxCnBk_-0" value="USERS" style="swimlane;" vertex="1" parent="WIyWlLk6GJQsqaUBKTNV-1">
          <mxGeometry x="-50" y="200" width="200" height="200" as="geometry" />
        </mxCell>
        <mxCell id="6Z7Kgo8BdCsyhNxCnBk_-29" value="NAME" style="text;strokeColor=none;fillColor=none;align=left;verticalAlign=middle;spacingLeft=4;spacingRight=4;overflow=hidden;points=[[0,0.5],[1,0.5]];portConstraint=eastwest;rotatable=0;rounded=0;" vertex="1" parent="6Z7Kgo8BdCsyhNxCnBk_-0">
          <mxGeometry x="15" y="50" width="80" height="30" as="geometry" />
        </mxCell>
        <mxCell id="6Z7Kgo8BdCsyhNxCnBk_-30" value="ID" style="text;strokeColor=none;fillColor=none;align=left;verticalAlign=middle;spacingLeft=4;spacingRight=4;overflow=hidden;points=[[0,0.5],[1,0.5]];portConstraint=eastwest;rotatable=0;rounded=0;" vertex="1" parent="6Z7Kgo8BdCsyhNxCnBk_-0">
          <mxGeometry x="15" y="30" width="80" height="30" as="geometry" />
        </mxCell>
        <mxCell id="6Z7Kgo8BdCsyhNxCnBk_-31" value="ROLE" style="text;strokeColor=none;fillColor=none;align=left;verticalAlign=middle;spacingLeft=4;spacingRight=4;overflow=hidden;points=[[0,0.5],[1,0.5]];portConstraint=eastwest;rotatable=0;rounded=0;" vertex="1" parent="6Z7Kgo8BdCsyhNxCnBk_-0">
          <mxGeometry x="15" y="130" width="80" height="30" as="geometry" />
        </mxCell>
        <mxCell id="6Z7Kgo8BdCsyhNxCnBk_-65" value="EMAIL" style="text;strokeColor=none;fillColor=none;align=left;verticalAlign=middle;spacingLeft=4;spacingRight=4;overflow=hidden;points=[[0,0.5],[1,0.5]];portConstraint=eastwest;rotatable=0;rounded=0;" vertex="1" parent="6Z7Kgo8BdCsyhNxCnBk_-0">
          <mxGeometry x="15" y="70" width="80" height="30" as="geometry" />
        </mxCell>
        <mxCell id="6Z7Kgo8BdCsyhNxCnBk_-66" value="PASSWORD" style="text;strokeColor=none;fillColor=none;align=left;verticalAlign=middle;spacingLeft=4;spacingRight=4;overflow=hidden;points=[[0,0.5],[1,0.5]];portConstraint=eastwest;rotatable=0;rounded=0;" vertex="1" parent="6Z7Kgo8BdCsyhNxCnBk_-0">
          <mxGeometry x="15" y="90" width="80" height="30" as="geometry" />
        </mxCell>
        <mxCell id="6Z7Kgo8BdCsyhNxCnBk_-67" value="AVATAR" style="text;strokeColor=none;fillColor=none;align=left;verticalAlign=middle;spacingLeft=4;spacingRight=4;overflow=hidden;points=[[0,0.5],[1,0.5]];portConstraint=eastwest;rotatable=0;rounded=0;" vertex="1" parent="6Z7Kgo8BdCsyhNxCnBk_-0">
          <mxGeometry x="15" y="110" width="80" height="30" as="geometry" />
        </mxCell>
        <mxCell id="6Z7Kgo8BdCsyhNxCnBk_-1" value="QUIZZ" style="swimlane;" vertex="1" parent="WIyWlLk6GJQsqaUBKTNV-1">
          <mxGeometry x="-60" y="640" width="210" height="280" as="geometry" />
        </mxCell>
        <mxCell id="6Z7Kgo8BdCsyhNxCnBk_-23" value="ID" style="text;strokeColor=none;fillColor=none;align=left;verticalAlign=middle;spacingLeft=4;spacingRight=4;overflow=hidden;points=[[0,0.5],[1,0.5]];portConstraint=eastwest;rotatable=0;rounded=0;" vertex="1" parent="6Z7Kgo8BdCsyhNxCnBk_-1">
          <mxGeometry x="10" y="30" width="80" height="30" as="geometry" />
        </mxCell>
        <mxCell id="6Z7Kgo8BdCsyhNxCnBk_-24" value="NAME" style="text;strokeColor=none;fillColor=none;align=left;verticalAlign=middle;spacingLeft=4;spacingRight=4;overflow=hidden;points=[[0,0.5],[1,0.5]];portConstraint=eastwest;rotatable=0;rounded=0;" vertex="1" parent="6Z7Kgo8BdCsyhNxCnBk_-1">
          <mxGeometry x="10" y="70" width="80" height="30" as="geometry" />
        </mxCell>
        <mxCell id="6Z7Kgo8BdCsyhNxCnBk_-25" value="DESCRIPTION" style="text;strokeColor=none;fillColor=none;align=left;verticalAlign=middle;spacingLeft=4;spacingRight=4;overflow=hidden;points=[[0,0.5],[1,0.5]];portConstraint=eastwest;rotatable=0;rounded=0;" vertex="1" parent="6Z7Kgo8BdCsyhNxCnBk_-1">
          <mxGeometry x="10" y="110" width="110" height="30" as="geometry" />
        </mxCell>
        <mxCell id="6Z7Kgo8BdCsyhNxCnBk_-26" value="CATEGORY" style="text;strokeColor=none;fillColor=none;align=left;verticalAlign=middle;spacingLeft=4;spacingRight=4;overflow=hidden;points=[[0,0.5],[1,0.5]];portConstraint=eastwest;rotatable=0;rounded=0;" vertex="1" parent="6Z7Kgo8BdCsyhNxCnBk_-1">
          <mxGeometry x="10" y="90" width="110" height="30" as="geometry" />
        </mxCell>
        <mxCell id="6Z7Kgo8BdCsyhNxCnBk_-27" value="DIFFICULTY" style="text;strokeColor=none;fillColor=none;align=left;verticalAlign=middle;spacingLeft=4;spacingRight=4;overflow=hidden;points=[[0,0.5],[1,0.5]];portConstraint=eastwest;rotatable=0;rounded=0;" vertex="1" parent="6Z7Kgo8BdCsyhNxCnBk_-1">
          <mxGeometry x="10" y="130" width="110" height="30" as="geometry" />
        </mxCell>
        <mxCell id="6Z7Kgo8BdCsyhNxCnBk_-28" value="LANG" style="text;strokeColor=none;fillColor=none;align=left;verticalAlign=middle;spacingLeft=4;spacingRight=4;overflow=hidden;points=[[0,0.5],[1,0.5]];portConstraint=eastwest;rotatable=0;rounded=0;" vertex="1" parent="6Z7Kgo8BdCsyhNxCnBk_-1">
          <mxGeometry x="10" y="150" width="110" height="30" as="geometry" />
        </mxCell>
        <mxCell id="6Z7Kgo8BdCsyhNxCnBk_-47" value="USER_ID" style="text;strokeColor=none;fillColor=none;align=left;verticalAlign=middle;spacingLeft=4;spacingRight=4;overflow=hidden;points=[[0,0.5],[1,0.5]];portConstraint=eastwest;rotatable=0;rounded=0;" vertex="1" parent="6Z7Kgo8BdCsyhNxCnBk_-1">
          <mxGeometry x="10" y="50" width="80" height="30" as="geometry" />
        </mxCell>
        <mxCell id="6Z7Kgo8BdCsyhNxCnBk_-48" value="CREATED_AT" style="text;strokeColor=none;fillColor=none;align=left;verticalAlign=middle;spacingLeft=4;spacingRight=4;overflow=hidden;points=[[0,0.5],[1,0.5]];portConstraint=eastwest;rotatable=0;rounded=0;" vertex="1" parent="6Z7Kgo8BdCsyhNxCnBk_-1">
          <mxGeometry x="10" y="190" width="110" height="30" as="geometry" />
        </mxCell>
        <mxCell id="6Z7Kgo8BdCsyhNxCnBk_-68" value="IMAGE" style="text;strokeColor=none;fillColor=none;align=left;verticalAlign=middle;spacingLeft=4;spacingRight=4;overflow=hidden;points=[[0,0.5],[1,0.5]];portConstraint=eastwest;rotatable=0;rounded=0;" vertex="1" parent="6Z7Kgo8BdCsyhNxCnBk_-1">
          <mxGeometry x="10" y="170" width="110" height="30" as="geometry" />
        </mxCell>
        <mxCell id="6Z7Kgo8BdCsyhNxCnBk_-92" value="IS_VISIBLE" style="text;strokeColor=none;fillColor=none;align=left;verticalAlign=middle;spacingLeft=4;spacingRight=4;overflow=hidden;points=[[0,0.5],[1,0.5]];portConstraint=eastwest;rotatable=0;rounded=0;" vertex="1" parent="6Z7Kgo8BdCsyhNxCnBk_-1">
          <mxGeometry x="10" y="210" width="80" height="30" as="geometry" />
        </mxCell>
        <mxCell id="6Z7Kgo8BdCsyhNxCnBk_-4" value="PLAY" style="swimlane;rounded=1;" vertex="1" parent="WIyWlLk6GJQsqaUBKTNV-1">
          <mxGeometry x="-35" y="480" width="170" height="80" as="geometry" />
        </mxCell>
        <mxCell id="6Z7Kgo8BdCsyhNxCnBk_-90" value="CREATED_AT" style="text;strokeColor=none;fillColor=none;align=left;verticalAlign=middle;spacingLeft=4;spacingRight=4;overflow=hidden;points=[[0,0.5],[1,0.5]];portConstraint=eastwest;rotatable=0;rounded=0;" vertex="1" parent="6Z7Kgo8BdCsyhNxCnBk_-4">
          <mxGeometry x="5" y="40" width="110" height="30" as="geometry" />
        </mxCell>
        <mxCell id="6Z7Kgo8BdCsyhNxCnBk_-91" value="SCORE" style="text;strokeColor=none;fillColor=none;align=left;verticalAlign=middle;spacingLeft=4;spacingRight=4;overflow=hidden;points=[[0,0.5],[1,0.5]];portConstraint=eastwest;rotatable=0;rounded=0;" vertex="1" parent="6Z7Kgo8BdCsyhNxCnBk_-4">
          <mxGeometry x="5" y="20" width="110" height="30" as="geometry" />
        </mxCell>
        <mxCell id="6Z7Kgo8BdCsyhNxCnBk_-5" value="" style="endArrow=none;html=1;rounded=0;" edge="1" parent="WIyWlLk6GJQsqaUBKTNV-1">
          <mxGeometry width="50" height="50" relative="1" as="geometry">
            <mxPoint x="40" y="400" as="sourcePoint" />
            <mxPoint x="40" y="480" as="targetPoint" />
          </mxGeometry>
        </mxCell>
        <mxCell id="6Z7Kgo8BdCsyhNxCnBk_-6" value="" style="endArrow=none;html=1;rounded=0;" edge="1" parent="WIyWlLk6GJQsqaUBKTNV-1">
          <mxGeometry width="50" height="50" relative="1" as="geometry">
            <mxPoint x="40" y="560" as="sourcePoint" />
            <mxPoint x="40" y="640" as="targetPoint" />
          </mxGeometry>
        </mxCell>
        <mxCell id="6Z7Kgo8BdCsyhNxCnBk_-8" value="" style="endArrow=none;html=1;rounded=0;" edge="1" parent="WIyWlLk6GJQsqaUBKTNV-1">
          <mxGeometry width="50" height="50" relative="1" as="geometry">
            <mxPoint x="240" y="720" as="sourcePoint" />
            <mxPoint x="150" y="720" as="targetPoint" />
          </mxGeometry>
        </mxCell>
        <mxCell id="6Z7Kgo8BdCsyhNxCnBk_-10" value="BELONGS TO" style="swimlane;startSize=23;rounded=1;" vertex="1" parent="WIyWlLk6GJQsqaUBKTNV-1">
          <mxGeometry x="240" y="680" width="170" height="80" as="geometry" />
        </mxCell>
        <mxCell id="6Z7Kgo8BdCsyhNxCnBk_-13" value="" style="endArrow=none;html=1;rounded=0;" edge="1" parent="WIyWlLk6GJQsqaUBKTNV-1">
          <mxGeometry width="50" height="50" relative="1" as="geometry">
            <mxPoint x="510" y="719.71" as="sourcePoint" />
            <mxPoint x="410" y="719.71" as="targetPoint" />
          </mxGeometry>
        </mxCell>
        <mxCell id="6Z7Kgo8BdCsyhNxCnBk_-14" value="QUESTIONS" style="swimlane;" vertex="1" parent="WIyWlLk6GJQsqaUBKTNV-1">
          <mxGeometry x="510" y="640" width="200" height="200" as="geometry" />
        </mxCell>
        <mxCell id="6Z7Kgo8BdCsyhNxCnBk_-71" value="ID" style="text;strokeColor=none;fillColor=none;align=left;verticalAlign=middle;spacingLeft=4;spacingRight=4;overflow=hidden;points=[[0,0.5],[1,0.5]];portConstraint=eastwest;rotatable=0;rounded=0;" vertex="1" parent="6Z7Kgo8BdCsyhNxCnBk_-14">
          <mxGeometry x="10" y="30" width="80" height="30" as="geometry" />
        </mxCell>
        <mxCell id="6Z7Kgo8BdCsyhNxCnBk_-72" value="QUIZZ_ID" style="text;strokeColor=none;fillColor=none;align=left;verticalAlign=middle;spacingLeft=4;spacingRight=4;overflow=hidden;points=[[0,0.5],[1,0.5]];portConstraint=eastwest;rotatable=0;rounded=0;" vertex="1" parent="6Z7Kgo8BdCsyhNxCnBk_-14">
          <mxGeometry x="10" y="50" width="80" height="30" as="geometry" />
        </mxCell>
        <mxCell id="6Z7Kgo8BdCsyhNxCnBk_-73" value="QUESTION" style="text;strokeColor=none;fillColor=none;align=left;verticalAlign=middle;spacingLeft=4;spacingRight=4;overflow=hidden;points=[[0,0.5],[1,0.5]];portConstraint=eastwest;rotatable=0;rounded=0;" vertex="1" parent="6Z7Kgo8BdCsyhNxCnBk_-14">
          <mxGeometry x="10" y="70" width="110" height="30" as="geometry" />
        </mxCell>
        <mxCell id="6Z7Kgo8BdCsyhNxCnBk_-74" value="PROPOSITIONS" style="text;strokeColor=none;fillColor=none;align=left;verticalAlign=middle;spacingLeft=4;spacingRight=4;overflow=hidden;points=[[0,0.5],[1,0.5]];portConstraint=eastwest;rotatable=0;rounded=0;" vertex="1" parent="6Z7Kgo8BdCsyhNxCnBk_-14">
          <mxGeometry x="10" y="90" width="110" height="30" as="geometry" />
        </mxCell>
        <mxCell id="6Z7Kgo8BdCsyhNxCnBk_-75" value="ANSWER" style="text;strokeColor=none;fillColor=none;align=left;verticalAlign=middle;spacingLeft=4;spacingRight=4;overflow=hidden;points=[[0,0.5],[1,0.5]];portConstraint=eastwest;rotatable=0;rounded=0;" vertex="1" parent="6Z7Kgo8BdCsyhNxCnBk_-14">
          <mxGeometry x="10" y="110" width="110" height="30" as="geometry" />
        </mxCell>
        <mxCell id="6Z7Kgo8BdCsyhNxCnBk_-34" value="CREATE" style="swimlane;rounded=1;" vertex="1" parent="WIyWlLk6GJQsqaUBKTNV-1">
          <mxGeometry x="-515" y="260" width="170" height="80" as="geometry" />
        </mxCell>
        <mxCell id="6Z7Kgo8BdCsyhNxCnBk_-35" value="" style="endArrow=none;html=1;rounded=0;" edge="1" parent="WIyWlLk6GJQsqaUBKTNV-1">
          <mxGeometry width="50" height="50" relative="1" as="geometry">
            <mxPoint x="-435.29" y="340" as="sourcePoint" />
            <mxPoint x="-435.29" y="420" as="targetPoint" />
          </mxGeometry>
        </mxCell>
        <mxCell id="6Z7Kgo8BdCsyhNxCnBk_-36" value="COMMENT" style="swimlane;" vertex="1" parent="WIyWlLk6GJQsqaUBKTNV-1">
          <mxGeometry x="-530" y="420" width="200" height="200" as="geometry" />
        </mxCell>
        <mxCell id="6Z7Kgo8BdCsyhNxCnBk_-37" value="ID" style="text;strokeColor=none;fillColor=none;align=left;verticalAlign=middle;spacingLeft=4;spacingRight=4;overflow=hidden;points=[[0,0.5],[1,0.5]];portConstraint=eastwest;rotatable=0;rounded=0;" vertex="1" parent="6Z7Kgo8BdCsyhNxCnBk_-36">
          <mxGeometry x="10" y="30" width="80" height="30" as="geometry" />
        </mxCell>
        <mxCell id="6Z7Kgo8BdCsyhNxCnBk_-38" value="USER_ID" style="text;strokeColor=none;fillColor=none;align=left;verticalAlign=middle;spacingLeft=4;spacingRight=4;overflow=hidden;points=[[0,0.5],[1,0.5]];portConstraint=eastwest;rotatable=0;rounded=0;" vertex="1" parent="6Z7Kgo8BdCsyhNxCnBk_-36">
          <mxGeometry x="10" y="50" width="80" height="30" as="geometry" />
        </mxCell>
        <mxCell id="6Z7Kgo8BdCsyhNxCnBk_-39" value="TITLE" style="text;strokeColor=none;fillColor=none;align=left;verticalAlign=middle;spacingLeft=4;spacingRight=4;overflow=hidden;points=[[0,0.5],[1,0.5]];portConstraint=eastwest;rotatable=0;rounded=0;" vertex="1" parent="6Z7Kgo8BdCsyhNxCnBk_-36">
          <mxGeometry x="10" y="90" width="110" height="30" as="geometry" />
        </mxCell>
        <mxCell id="6Z7Kgo8BdCsyhNxCnBk_-40" value="DESCRIPTION" style="text;strokeColor=none;fillColor=none;align=left;verticalAlign=middle;spacingLeft=4;spacingRight=4;overflow=hidden;points=[[0,0.5],[1,0.5]];portConstraint=eastwest;rotatable=0;rounded=0;" vertex="1" parent="6Z7Kgo8BdCsyhNxCnBk_-36">
          <mxGeometry x="10" y="110" width="110" height="30" as="geometry" />
        </mxCell>
        <mxCell id="6Z7Kgo8BdCsyhNxCnBk_-43" value="QUIZZ_ID" style="text;strokeColor=none;fillColor=none;align=left;verticalAlign=middle;spacingLeft=4;spacingRight=4;overflow=hidden;points=[[0,0.5],[1,0.5]];portConstraint=eastwest;rotatable=0;rounded=0;" vertex="1" parent="6Z7Kgo8BdCsyhNxCnBk_-36">
          <mxGeometry x="10" y="70" width="80" height="30" as="geometry" />
        </mxCell>
        <mxCell id="6Z7Kgo8BdCsyhNxCnBk_-44" value="" style="endArrow=none;html=1;rounded=0;entryX=0.5;entryY=0;entryDx=0;entryDy=0;" edge="1" parent="WIyWlLk6GJQsqaUBKTNV-1" target="6Z7Kgo8BdCsyhNxCnBk_-45">
          <mxGeometry width="50" height="50" relative="1" as="geometry">
            <mxPoint x="-435" y="620" as="sourcePoint" />
            <mxPoint x="-255.28999999999974" y="700" as="targetPoint" />
          </mxGeometry>
        </mxCell>
        <mxCell id="6Z7Kgo8BdCsyhNxCnBk_-45" value="BELONG TO" style="swimlane;rounded=1;" vertex="1" parent="WIyWlLk6GJQsqaUBKTNV-1">
          <mxGeometry x="-520" y="680" width="170" height="80" as="geometry" />
        </mxCell>
        <mxCell id="6Z7Kgo8BdCsyhNxCnBk_-46" value="" style="endArrow=none;html=1;rounded=0;entryX=1;entryY=0.5;entryDx=0;entryDy=0;" edge="1" parent="WIyWlLk6GJQsqaUBKTNV-1" target="6Z7Kgo8BdCsyhNxCnBk_-45">
          <mxGeometry width="50" height="50" relative="1" as="geometry">
            <mxPoint x="-60" y="720" as="sourcePoint" />
            <mxPoint x="-170" y="719.71" as="targetPoint" />
          </mxGeometry>
        </mxCell>
        <mxCell id="6Z7Kgo8BdCsyhNxCnBk_-57" value="0,N" style="text;strokeColor=none;fillColor=none;align=left;verticalAlign=middle;spacingLeft=4;spacingRight=4;overflow=hidden;points=[[0,0.5],[1,0.5]];portConstraint=eastwest;rotatable=0;rounded=0;" vertex="1" parent="WIyWlLk6GJQsqaUBKTNV-1">
          <mxGeometry x="440" y="690" width="80" height="30" as="geometry" />
        </mxCell>
        <mxCell id="6Z7Kgo8BdCsyhNxCnBk_-58" value="0,N" style="text;strokeColor=none;fillColor=none;align=left;verticalAlign=middle;spacingLeft=4;spacingRight=4;overflow=hidden;points=[[0,0.5],[1,0.5]];portConstraint=eastwest;rotatable=0;rounded=0;" vertex="1" parent="WIyWlLk6GJQsqaUBKTNV-1">
          <mxGeometry x="180" y="690" width="80" height="30" as="geometry" />
        </mxCell>
        <mxCell id="6Z7Kgo8BdCsyhNxCnBk_-59" value="RATE" style="swimlane;rounded=1;" vertex="1" parent="WIyWlLk6GJQsqaUBKTNV-1">
          <mxGeometry x="170" y="480" width="170" height="80" as="geometry" />
        </mxCell>
        <mxCell id="6Z7Kgo8BdCsyhNxCnBk_-61" value="" style="endArrow=none;html=1;rounded=0;entryX=0.532;entryY=-0.002;entryDx=0;entryDy=0;entryPerimeter=0;exitX=0.701;exitY=-0.003;exitDx=0;exitDy=0;exitPerimeter=0;" edge="1" parent="6Z7Kgo8BdCsyhNxCnBk_-59" source="6Z7Kgo8BdCsyhNxCnBk_-1">
          <mxGeometry width="50" height="50" relative="1" as="geometry">
            <mxPoint x="-110.44" as="sourcePoint" />
            <mxPoint x="100.00000000000006" y="79.83999999999992" as="targetPoint" />
          </mxGeometry>
        </mxCell>
        <mxCell id="6Z7Kgo8BdCsyhNxCnBk_-76" value="RATING" style="text;strokeColor=none;fillColor=none;align=left;verticalAlign=middle;spacingLeft=4;spacingRight=4;overflow=hidden;points=[[0,0.5],[1,0.5]];portConstraint=eastwest;rotatable=0;rounded=0;" vertex="1" parent="6Z7Kgo8BdCsyhNxCnBk_-59">
          <mxGeometry x="10" y="25" width="80" height="30" as="geometry" />
        </mxCell>
        <mxCell id="6Z7Kgo8BdCsyhNxCnBk_-60" value="" style="endArrow=none;html=1;rounded=0;entryX=0.532;entryY=-0.002;entryDx=0;entryDy=0;entryPerimeter=0;" edge="1" parent="WIyWlLk6GJQsqaUBKTNV-1" target="6Z7Kgo8BdCsyhNxCnBk_-59">
          <mxGeometry width="50" height="50" relative="1" as="geometry">
            <mxPoint x="80" y="400" as="sourcePoint" />
            <mxPoint x="50" y="490" as="targetPoint" />
          </mxGeometry>
        </mxCell>
        <mxCell id="6Z7Kgo8BdCsyhNxCnBk_-62" value="CREATE" style="swimlane;rounded=1;" vertex="1" parent="WIyWlLk6GJQsqaUBKTNV-1">
          <mxGeometry x="-230" y="480" width="170" height="80" as="geometry" />
        </mxCell>
        <mxCell id="6Z7Kgo8BdCsyhNxCnBk_-64" value="" style="endArrow=none;html=1;rounded=0;entryX=0.5;entryY=0;entryDx=0;entryDy=0;" edge="1" parent="WIyWlLk6GJQsqaUBKTNV-1" target="6Z7Kgo8BdCsyhNxCnBk_-62">
          <mxGeometry width="50" height="50" relative="1" as="geometry">
            <mxPoint y="400.16" as="sourcePoint" />
            <mxPoint x="170.44000000000005" y="479.99999999999994" as="targetPoint" />
          </mxGeometry>
        </mxCell>
        <mxCell id="6Z7Kgo8BdCsyhNxCnBk_-63" value="" style="endArrow=none;html=1;rounded=0;entryX=0.3;entryY=0;entryDx=0;entryDy=0;entryPerimeter=0;exitX=0.701;exitY=-0.003;exitDx=0;exitDy=0;exitPerimeter=0;" edge="1" parent="WIyWlLk6GJQsqaUBKTNV-1" target="6Z7Kgo8BdCsyhNxCnBk_-1">
          <mxGeometry width="50" height="50" relative="1" as="geometry">
            <mxPoint x="-150.44" y="560" as="sourcePoint" />
            <mxPoint x="60.00000000000006" y="639.8399999999999" as="targetPoint" />
          </mxGeometry>
        </mxCell>
        <mxCell id="6Z7Kgo8BdCsyhNxCnBk_-80" value="0,N" style="text;strokeColor=none;fillColor=none;align=left;verticalAlign=middle;spacingLeft=4;spacingRight=4;overflow=hidden;points=[[0,0.5],[1,0.5]];portConstraint=eastwest;rotatable=0;rounded=0;" vertex="1" parent="WIyWlLk6GJQsqaUBKTNV-1">
          <mxGeometry x="-250" y="690" width="80" height="30" as="geometry" />
        </mxCell>
        <mxCell id="6Z7Kgo8BdCsyhNxCnBk_-81" value="1,1" style="text;strokeColor=none;fillColor=none;align=left;verticalAlign=middle;spacingLeft=4;spacingRight=4;overflow=hidden;points=[[0,0.5],[1,0.5]];portConstraint=eastwest;rotatable=0;rounded=0;" vertex="1" parent="WIyWlLk6GJQsqaUBKTNV-1">
          <mxGeometry x="-430" y="640" width="80" height="30" as="geometry" />
        </mxCell>
        <mxCell id="6Z7Kgo8BdCsyhNxCnBk_-82" value="0,N" style="text;strokeColor=none;fillColor=none;align=left;verticalAlign=middle;spacingLeft=4;spacingRight=4;overflow=hidden;points=[[0,0.5],[1,0.5]];portConstraint=eastwest;rotatable=0;rounded=0;" vertex="1" parent="WIyWlLk6GJQsqaUBKTNV-1">
          <mxGeometry x="-220" y="270" width="80" height="30" as="geometry" />
        </mxCell>
        <mxCell id="6Z7Kgo8BdCsyhNxCnBk_-83" value="1,1" style="text;strokeColor=none;fillColor=none;align=left;verticalAlign=middle;spacingLeft=4;spacingRight=4;overflow=hidden;points=[[0,0.5],[1,0.5]];portConstraint=eastwest;rotatable=0;rounded=0;" vertex="1" parent="WIyWlLk6GJQsqaUBKTNV-1">
          <mxGeometry x="-430" y="360" width="80" height="30" as="geometry" />
        </mxCell>
        <mxCell id="6Z7Kgo8BdCsyhNxCnBk_-84" value="0,N" style="text;strokeColor=none;fillColor=none;align=left;verticalAlign=middle;spacingLeft=4;spacingRight=4;overflow=hidden;points=[[0,0.5],[1,0.5]];portConstraint=eastwest;rotatable=0;rounded=0;" vertex="1" parent="WIyWlLk6GJQsqaUBKTNV-1">
          <mxGeometry x="-130" y="420" width="80" height="30" as="geometry" />
        </mxCell>
        <mxCell id="6Z7Kgo8BdCsyhNxCnBk_-85" value="1,1" style="text;strokeColor=none;fillColor=none;align=left;verticalAlign=middle;spacingLeft=4;spacingRight=4;overflow=hidden;points=[[0,0.5],[1,0.5]];portConstraint=eastwest;rotatable=0;rounded=0;" vertex="1" parent="WIyWlLk6GJQsqaUBKTNV-1">
          <mxGeometry x="-130" y="584.5" width="80" height="30" as="geometry" />
        </mxCell>
        <mxCell id="6Z7Kgo8BdCsyhNxCnBk_-86" value="0,N" style="text;strokeColor=none;fillColor=none;align=left;verticalAlign=middle;spacingLeft=4;spacingRight=4;overflow=hidden;points=[[0,0.5],[1,0.5]];portConstraint=eastwest;rotatable=0;rounded=0;" vertex="1" parent="WIyWlLk6GJQsqaUBKTNV-1">
          <mxGeometry x="40" y="430" width="80" height="30" as="geometry" />
        </mxCell>
        <mxCell id="6Z7Kgo8BdCsyhNxCnBk_-87" value="0,1" style="text;strokeColor=none;fillColor=none;align=left;verticalAlign=middle;spacingLeft=4;spacingRight=4;overflow=hidden;points=[[0,0.5],[1,0.5]];portConstraint=eastwest;rotatable=0;rounded=0;" vertex="1" parent="WIyWlLk6GJQsqaUBKTNV-1">
          <mxGeometry x="190" y="420" width="80" height="30" as="geometry" />
        </mxCell>
        <mxCell id="6Z7Kgo8BdCsyhNxCnBk_-88" value="0,N" style="text;strokeColor=none;fillColor=none;align=left;verticalAlign=middle;spacingLeft=4;spacingRight=4;overflow=hidden;points=[[0,0.5],[1,0.5]];portConstraint=eastwest;rotatable=0;rounded=0;" vertex="1" parent="WIyWlLk6GJQsqaUBKTNV-1">
          <mxGeometry x="180" y="600" width="80" height="30" as="geometry" />
        </mxCell>
        <mxCell id="6Z7Kgo8BdCsyhNxCnBk_-89" value="1,N" style="text;strokeColor=none;fillColor=none;align=left;verticalAlign=middle;spacingLeft=4;spacingRight=4;overflow=hidden;points=[[0,0.5],[1,0.5]];portConstraint=eastwest;rotatable=0;rounded=0;" vertex="1" parent="WIyWlLk6GJQsqaUBKTNV-1">
          <mxGeometry x="40" y="580" width="80" height="30" as="geometry" />
        </mxCell>
      </root>
    </mxGraphModel>
  </diagram>
</mxfile>
